<svg width="36" height="36" viewBox="0 0 36 36" fill="none" xmlns="http://www.w3.org/2000/svg">
<circle cx="18" cy="18" r="18" fill="#00D8DA"/>
<path d="M13.0384 10.5621L11.8591 10.5C11.4867 10.5 11.1143 10.6242 10.866 10.8724C10.3074 11.369 9.37639 12.3 9.12812 13.5414C8.69366 15.4035 9.37639 17.638 10.9902 19.8724C12.604 22.1069 15.7075 25.7069 21.1695 27.2586C22.9074 27.7552 24.2729 27.4448 25.3902 26.7621C26.2592 26.2035 26.8178 25.3345 27.004 24.4035L27.1902 23.5345C27.2523 23.2862 27.1281 22.9758 26.8798 22.8517L22.9695 21.0517C22.7212 20.9276 22.4109 20.9896 22.2247 21.2379L20.6729 23.2241C20.5488 23.3483 20.3626 23.4103 20.1764 23.3483C19.1212 22.9758 15.5833 21.4862 13.6591 17.7621C13.597 17.5759 13.597 17.3896 13.7212 17.2655L15.2109 15.5897C15.335 15.4035 15.397 15.1553 15.335 14.969L13.535 10.9345C13.4729 10.7483 13.2867 10.5621 13.0384 10.5621Z" fill="#FEFEFE"/>
</svg>
